<svg width="20" height="20" viewBox="0 0 20 20" fill="none" xmlns="http://www.w3.org/2000/svg">
<path d="M9.4999 5.99984V6.49984H10.4999V5.99984H9.4999ZM10.4999 5.9865V5.4865H9.4999V5.9865H10.4999ZM10.4999 14.6665V9.33317H9.4999V14.6665H10.4999ZM10.4999 5.99984V5.9865H9.4999V5.99984H10.4999ZM7.9999 10.4998H9.9999V9.49984H7.9999V10.4998ZM7.9999 14.4998H11.9999V13.4998H7.9999V14.4998ZM9.9999 1.1665C14.8784 1.1665 18.8332 5.12132 18.8332 9.99984L19.8332 9.99984C19.8332 4.56904 15.4307 0.166504 9.9999 0.166504L9.9999 1.1665ZM1.16656 9.99984C1.16657 5.12132 5.12138 1.1665 9.9999 1.1665L9.9999 0.166504C4.5691 0.166503 0.166565 4.56904 0.166565 9.99984H1.16656ZM9.9999 18.8332C5.12138 18.8332 1.16656 14.8783 1.16656 9.99984H0.166565C0.166564 15.4306 4.5691 19.8332 9.9999 19.8332V18.8332ZM9.9999 19.8332C15.4307 19.8332 19.8332 15.4306 19.8332 9.99984L18.8332 9.99984C18.8332 14.8784 14.8784 18.8332 9.9999 18.8332V19.8332Z" fill="#303030"/>
</svg>
