<svg width="20" height="17" viewBox="0 0 20 17" fill="none" xmlns="http://www.w3.org/2000/svg">
<g id="Frame" clip-path="url(#clip0_944_1160)">
<g id="Group">
<g id="Group_2">
<g id="Group_3">
<path id="Vector" d="M18.2507 16.5003H1.7507C1.41459 16.5003 1.10904 16.3204 0.956258 16.0505C0.80348 15.7806 0.80348 15.4208 0.956258 15.1509L9.20626 1.1168C9.35903 0.846916 9.66459 0.666992 10.0007 0.666992C10.3368 0.666992 10.6424 0.846916 10.7951 1.1168L19.0451 15.1509C19.1979 15.4208 19.1979 15.7806 19.0451 16.0505C18.8924 16.3204 18.5868 16.5003 18.2507 16.5003ZM3.33959 14.7011H16.6618L10.0007 3.36586L3.33959 14.7011Z" fill="#EB3131"/>
</g>
</g>
<g id="Group_4">
<path id="Vector_2" d="M10 11.2224C9.4806 11.2224 9.08337 10.8325 9.08337 10.3227V6.1545C9.08337 5.64472 9.4806 5.25488 10 5.25488C10.5195 5.25488 10.9167 5.64472 10.9167 6.1545V10.3227C10.9167 10.8325 10.5195 11.2224 10 11.2224Z" fill="#EB3131"/>
</g>
<g id="Group_5">
<path id="Vector_3" d="M9.99993 14.1617C10.6749 14.1617 11.2222 13.6247 11.2222 12.9622C11.2222 12.2997 10.6749 11.7627 9.99993 11.7627C9.32492 11.7627 8.77771 12.2997 8.77771 12.9622C8.77771 13.6247 9.32492 14.1617 9.99993 14.1617Z" fill="#EB3131"/>
</g>
</g>
</g>
<defs>
<clipPath id="clip0_944_1160">
<rect width="18.3333" height="15.8333" fill="white" transform="translate(0.833374 0.666992)"/>
</clipPath>
</defs>
</svg>
